<svg width="161" height="20" viewBox="0 0 161 20" fill="none" xmlns="http://www.w3.org/2000/svg">
<g clip-path="url(#clip0_1979_4366)">
<mask id="mask0_1979_4366" style="mask-type:luminance" maskUnits="userSpaceOnUse" x="0" y="1" width="93" height="18">
<path d="M92.9883 1.16406H0V18.8361H92.9883V1.16406Z" fill="white"/>
</mask>
<g mask="url(#mask0_1979_4366)">
<path d="M17.1602 14.7803V1.44971H19.8662V14.7793H17.1602V14.7803Z" fill="white"/>
<path d="M31.4021 10.4186H23.8933C23.8933 11.2371 24.1602 11.8846 24.6559 12.3421C25.1517 12.8186 25.78 13.0473 26.5615 13.0473C27.1708 13.0473 27.6855 12.8951 28.1046 12.5898C28.5238 12.2854 28.8095 11.8667 28.943 11.3714H31.3055C31.191 12.1711 30.9053 12.8564 30.4293 13.4094C29.9335 13.9802 29.3621 14.3999 28.6761 14.6665C27.9902 14.9519 27.2853 15.0852 26.5605 15.0852C24.9218 15.0852 23.6444 14.6277 22.7106 13.7137C21.7578 12.7996 21.3008 11.5047 21.3008 9.82879C21.3008 8.80037 21.5099 7.90524 21.93 7.10558C22.3492 6.32482 22.9395 5.71513 23.7022 5.29641C24.4648 4.87768 25.3599 4.64893 26.3893 4.64893C27.4186 4.64893 28.2948 4.87768 29.0574 5.3153C29.82 5.77282 30.3916 6.36261 30.7918 7.12448C31.192 7.88634 31.4011 8.72379 31.4011 9.63782L31.4021 10.4186ZM24.637 7.27665C24.18 7.67648 23.9321 8.22848 23.8933 8.95254H28.7339C28.6771 8.24837 28.4293 7.69538 27.9912 7.29555C27.5531 6.89572 27.0005 6.68586 26.3335 6.68586C25.6665 6.68586 25.0761 6.89572 24.638 7.27566L24.637 7.27665Z" fill="white"/>
<path d="M33.3627 10.2664C34.0108 9.7711 35.0204 9.52344 36.3544 9.52344C37.574 9.54234 38.4123 9.44686 38.9081 9.21909C39.385 9.00924 39.6319 8.64819 39.6319 8.15289C39.6319 7.77196 39.4607 7.42883 39.1362 7.12448C38.7937 6.83903 38.2789 6.68686 37.573 6.68686C36.8303 6.68686 36.2578 6.89671 35.8576 7.27665C35.4385 7.67648 35.2094 8.20958 35.1527 8.85706H32.4656C32.5035 8.09521 32.7136 7.39103 33.0948 6.74355C33.4762 6.11496 34.0476 5.60075 34.8102 5.21983C35.5529 4.8389 36.4679 4.64893 37.5541 4.64893C39.1362 4.64893 40.3179 5.01096 41.1173 5.73403C41.8988 6.4581 42.2991 7.37213 42.2991 8.49503V14.7789H39.7076L39.6319 11.7126H39.5363C39.4029 12.7977 39.0027 13.6361 38.3167 14.207C37.6308 14.7978 36.7536 15.0832 35.7063 15.0832C34.7157 15.0832 33.8963 14.8545 33.286 14.3979C32.6767 13.9404 32.3711 13.2552 32.3711 12.3601C32.3711 11.4649 32.6946 10.7796 33.3617 10.2654L33.3627 10.2664ZM35.4972 13.0085C35.764 13.2184 36.1453 13.3129 36.6402 13.3129C37.1737 13.3129 37.6696 13.1984 38.1265 12.9319C38.5836 12.6842 38.946 12.3411 39.2128 11.9224C39.4795 11.5037 39.6319 11.0651 39.6319 10.5896V9.08482H39.5363C39.4597 9.50355 39.3262 9.84669 39.1362 10.0943C38.946 10.3609 38.6214 10.5519 38.2022 10.6841C37.7831 10.8363 37.1927 10.9318 36.4301 10.9696C36.0109 11.0074 35.6874 11.1218 35.4584 11.3127C35.2294 11.5226 35.115 11.7891 35.115 12.1312C35.115 12.5122 35.2294 12.7977 35.4962 13.0075L35.4972 13.0085Z" fill="white"/>
<path d="M52.72 5.29643C53.3491 5.71515 53.844 6.32485 54.2063 7.1056C54.5498 7.90526 54.74 8.81929 54.74 9.86659C54.74 10.9139 54.5498 11.8469 54.2063 12.6276C53.844 13.4272 53.3491 14.0369 52.72 14.4557C52.0907 14.8744 51.367 15.0842 50.5665 15.0842C49.766 15.0842 48.9845 14.8366 48.3364 14.3224C47.6883 13.8082 47.2123 13.0464 46.9455 12.0369H46.8311V18.2829H44.125V4.95329H46.7553L46.8311 7.71429H46.9455C47.2123 6.70478 47.6883 5.94292 48.3364 5.42872C48.9845 4.9145 49.7272 4.64795 50.5665 4.64795C51.4058 4.64795 52.0907 4.8777 52.72 5.29643ZM51.3102 12.3232C51.7672 11.7324 52.0151 10.9139 52.0151 9.86659C52.0151 8.81929 51.7672 8.01963 51.3102 7.42885C50.8333 6.83905 50.2051 6.5337 49.4235 6.5337C48.642 6.5337 48.0138 6.80026 47.5369 7.31446C47.06 7.84756 46.8321 8.49505 46.8321 9.29471V10.4564C46.8321 11.2561 47.061 11.9035 47.5369 12.4177C48.0138 12.9509 48.642 13.1985 49.4235 13.1985C50.2051 13.1985 50.8333 12.914 51.3102 12.3232Z" fill="white"/>
<path d="M59.8756 3.58292C59.6466 3.77289 59.552 4.09713 59.552 4.57354V4.95447H62.5059V6.63036H59.6097V14.7811H56.9038V6.62936H55.0938V4.95347H56.9038V4.57255C56.9038 3.41085 57.1895 2.55352 57.7997 2.00151C58.409 1.44951 59.3628 1.16406 60.6581 1.16406C61.1539 1.16406 61.7632 1.18296 62.5069 1.20186V3.35317C61.8209 3.33427 61.3441 3.31537 61.1161 3.31537C60.5058 3.31537 60.0867 3.41085 59.8776 3.58192L59.8756 3.58292Z" fill="white"/>
<path d="M66.5783 8.72381C66.7306 7.73319 66.9407 6.95244 67.2453 6.38154C67.5311 5.82953 67.9503 5.42971 68.5027 5.16316C69.0553 4.9155 69.818 4.78223 70.7896 4.78223V7.06681C69.7224 7.1434 68.8841 7.27668 68.2937 7.50444C67.6844 7.73319 67.2454 8.09423 66.9596 8.58954C66.655 9.08486 66.5027 9.80792 66.4638 10.722V14.7779H63.7578V4.9533H66.3871L66.4638 8.72381H66.5783Z" fill="white"/>
<path d="M73.7303 14.4557C72.911 14.0369 72.2628 13.4084 71.7869 12.6087C71.31 11.809 71.082 10.895 71.082 9.82879C71.082 8.76258 71.311 7.90524 71.7869 7.10558C72.2628 6.32483 72.911 5.71513 73.7303 5.29641C74.5497 4.87768 75.4646 4.64893 76.4552 4.64893C77.4459 4.64893 78.3419 4.87768 79.1613 5.29641C79.9617 5.71513 80.6099 6.32483 81.0857 7.10558C81.5627 7.90524 81.8096 8.80037 81.8096 9.82879C81.8096 10.8572 81.5617 11.809 81.1047 12.6087C80.6278 13.4084 79.9806 14.0369 79.1613 14.4557C78.3419 14.8744 77.4459 15.0842 76.4552 15.0842C75.4646 15.0842 74.5497 14.8744 73.7303 14.4557ZM78.3608 12.2089C78.8178 11.6757 79.0657 10.8761 79.0657 9.82879C79.0657 8.78147 78.8178 8.03851 78.3608 7.50541C77.9038 6.97231 77.2557 6.70575 76.4552 6.70575C75.6548 6.70575 74.9689 6.97231 74.5118 7.50541C74.0548 8.03851 73.8259 8.81927 73.8259 9.82879C73.8259 10.8383 74.0548 11.6757 74.5118 12.2089C74.9689 12.7609 75.6169 13.0274 76.4552 13.0274C77.2936 13.0274 77.9038 12.7609 78.3608 12.2089Z" fill="white"/>
<path d="M92.9884 5.35345L89.5008 4.74377L89.4819 4.87705C90.2256 5.06701 90.8349 5.42905 91.2919 5.96215C91.7489 6.49525 91.9968 7.12383 91.9968 7.86679C91.9968 8.89521 91.5965 9.69487 90.8339 10.2857C90.0523 10.8754 88.9851 11.1619 87.6132 11.1619C87.0795 11.1619 86.5648 11.1241 86.089 11.0097C85.7842 11.1052 85.5742 11.2195 85.4597 11.334C85.3452 11.4672 85.2885 11.6383 85.2885 11.8293C85.2885 12.077 85.384 12.2669 85.612 12.42C85.8221 12.5722 86.1267 12.63 86.5081 12.63H89.2141C90.4337 12.63 91.3486 12.8775 91.9769 13.3351C92.6051 13.8115 92.9297 14.5923 92.9297 15.6585C92.9297 16.7247 92.4906 17.5055 91.6144 18.0385C90.7383 18.5716 89.461 18.8382 87.7655 18.8382C85.9355 18.8382 84.6404 18.6671 83.8778 18.2862C83.0962 17.9053 82.7148 17.3343 82.7148 16.5725C82.7148 15.5063 83.591 14.8777 85.3831 14.7255V14.649C84.6204 14.5733 84.0301 14.3635 83.6298 14.0203C83.2296 13.6772 83.0394 13.2774 83.0394 12.802C83.0394 12.2112 83.2684 11.7735 83.7254 11.4692C84.1824 11.1649 84.8116 11.0117 85.612 10.9739V10.8973C84.8305 10.6686 84.2401 10.2876 83.8209 9.75454C83.4018 9.24034 83.2116 8.61175 83.2116 7.86879C83.2116 7.01144 83.5163 6.30728 84.1266 5.75527C84.736 5.20327 85.7653 4.78455 87.2518 4.518C89.1384 4.17485 91.044 3.77503 92.9874 3.3374V5.35545L92.9884 5.35345ZM89.006 6.91496C88.6636 6.66731 88.2056 6.53404 87.6152 6.53404C87.0248 6.53404 86.5479 6.66731 86.2243 6.91496C85.8808 7.16263 85.7285 7.48587 85.7285 7.86679C85.7285 8.28552 85.8808 8.62866 86.2243 8.89521C86.5479 9.16176 87.0059 9.27614 87.6152 9.27614C88.2245 9.27614 88.6636 9.16176 89.006 8.89521C89.3296 8.62866 89.5018 8.28552 89.5018 7.86679C89.5018 7.48587 89.3306 7.16263 89.006 6.91496ZM85.9375 14.6658C85.3283 14.8757 85.0416 15.2368 85.0416 15.732C85.0416 16.113 85.2516 16.4173 85.6897 16.6083C86.1088 16.8182 86.8137 16.9127 87.7665 16.9127C88.7193 16.9127 89.443 16.8172 89.8623 16.6272C90.2814 16.4372 90.4914 16.113 90.4914 15.6943C90.4914 15.3322 90.358 15.0657 90.1291 14.8946C89.8811 14.7425 89.4998 14.647 88.9662 14.647L85.9375 14.6658Z" fill="white"/>
<path d="M14.0259 1.16406C6.93828 1.16406 0 8.09143 0 15.1799H3.97639C3.97639 10.2696 9.13356 5.15637 14.0259 5.15637V1.16406Z" fill="white"/>
</g>
</g>
<g clip-path="url(#clip1_1979_4366)">
<path d="M149.564 4.93311H147.191V5.91528C146.356 5.36308 145.355 5.0406 144.28 5.0406C144.189 5.0406 144.097 5.04271 144.006 5.04692C143.924 5.05114 143.842 5.05746 143.759 5.0659C143.745 5.068 143.732 5.07011 143.717 5.07011C143.694 5.07433 143.669 5.07643 143.646 5.07854C143.591 5.08486 143.538 5.09118 143.485 5.09962C143.477 5.09962 143.469 5.10173 143.46 5.10383C143.026 5.16706 142.611 5.28087 142.21 5.44949C141.563 5.72349 141.003 6.09655 140.526 6.57078C140.052 7.045 139.679 7.60564 139.405 8.2527C139.133 8.88711 138.996 9.57632 138.996 10.3245C138.996 11.0728 139.133 11.7472 139.405 12.3943C139.679 13.0414 140.052 13.602 140.526 14.0762C141.003 14.5505 141.563 14.9256 142.21 15.1975C142.857 15.4714 143.547 15.6085 144.28 15.6085C145.372 15.6085 146.343 15.3281 147.191 14.7675C147.178 15.1553 147.092 15.5221 146.934 15.8656C146.788 16.2113 146.588 16.5064 146.329 16.7508C146.069 16.9954 145.762 17.1892 145.401 17.3326C145.056 17.478 144.683 17.5497 144.28 17.5497C143.675 17.5497 143.138 17.3916 142.661 17.0755C142.202 16.7572 141.856 16.342 141.626 15.8234H139.125C139.255 16.4136 139.477 16.9595 139.795 17.4632C140.111 17.9649 140.49 18.3969 140.937 18.7574C141.397 19.1305 141.907 19.4171 142.467 19.6194C143.043 19.8196 143.648 19.9208 144.28 19.9208C145.028 19.9208 145.717 19.7838 146.35 19.5119C146.997 19.2379 147.557 18.8648 148.032 18.3906C148.508 17.9164 148.881 17.3558 149.153 16.7087C149.427 16.0616 149.564 15.3703 149.564 14.6368V10.1095V4.93311ZM147.184 10.5058V10.5185C147.182 10.5564 147.178 10.5944 147.174 10.6323C147.17 10.6786 147.163 10.7229 147.157 10.7671C147.151 10.8135 147.142 10.8578 147.134 10.902C147.13 10.921 147.125 10.9379 147.121 10.9568C147.115 10.9927 147.106 11.0285 147.096 11.0622C147.075 11.1423 147.049 11.2203 147.022 11.2983C147.012 11.3278 147.001 11.3552 146.99 11.3826C146.969 11.4417 146.944 11.5007 146.917 11.5554C146.912 11.566 146.908 11.5765 146.902 11.587C146.9 11.5933 146.896 11.6018 146.894 11.6081C146.887 11.6229 146.881 11.6355 146.875 11.6482C146.864 11.6692 146.853 11.6903 146.841 11.7114C146.392 12.5355 145.557 13.1215 144.577 13.2205C144.529 13.2268 144.48 13.2289 144.43 13.231C144.381 13.2331 144.331 13.2352 144.28 13.2352C144.225 13.2352 144.17 13.2331 144.116 13.231C144.08 13.2289 144.042 13.2268 144.006 13.2226C144 13.2226 143.996 13.2205 143.989 13.2205C143.987 13.2226 143.985 13.2226 143.983 13.2205H143.981C142.659 13.0856 141.601 12.0676 141.403 10.7671C141.395 10.7187 141.388 10.6702 141.384 10.6217C141.38 10.5733 141.376 10.5248 141.374 10.4742C141.371 10.4257 141.369 10.3752 141.369 10.3245C141.369 10.274 141.371 10.2213 141.374 10.1707C141.376 10.1222 141.378 10.0737 141.384 10.0274C141.479 9.09788 142.01 8.29696 142.771 7.83538C142.798 7.81852 142.826 7.80166 142.855 7.7869C142.887 7.76794 142.921 7.75107 142.954 7.73421C142.984 7.71946 143.013 7.7026 143.045 7.68995C143.074 7.6752 143.106 7.66255 143.138 7.64991C143.182 7.63093 143.228 7.61197 143.275 7.5951C143.319 7.57614 143.365 7.56138 143.412 7.54663C143.429 7.5403 143.445 7.53609 143.462 7.53187C143.507 7.51923 143.551 7.50658 143.597 7.49604C143.629 7.48551 143.66 7.47919 143.694 7.47286C143.785 7.45179 143.875 7.43914 143.97 7.43071H143.972C143.972 7.43071 143.985 7.42649 143.991 7.4286H143.996C143.996 7.4286 144.006 7.4286 144.012 7.4286C144.05 7.42439 144.09 7.42228 144.13 7.42017C144.181 7.41807 144.229 7.41596 144.28 7.41596C144.343 7.41596 144.406 7.41595 144.47 7.42228C145.989 7.51923 147.191 8.78172 147.191 10.3266C147.191 10.3877 147.189 10.4489 147.184 10.5079V10.5058Z" fill="#79B231"/>
<path d="M111.544 0.943359H109.173V5.70039C108.339 5.14817 107.34 4.8257 106.263 4.8257H106.225C106.172 4.82359 106.119 4.82359 106.067 4.82359C105.363 4.82359 104.695 4.9606 104.06 5.23459C103.443 5.50648 102.903 5.88165 102.444 6.35587C101.997 6.8301 101.638 7.39074 101.364 8.0378C101.107 8.68486 100.977 9.37406 100.977 10.1076C100.977 10.841 101.114 11.5534 101.388 12.2005C101.659 12.8328 102.035 13.3871 102.509 13.8614C102.983 14.3356 103.544 14.7086 104.191 14.9826C104.456 15.0943 104.728 15.1828 105.009 15.2439C105.082 15.2629 105.158 15.2777 105.234 15.2924C105.312 15.3072 105.39 15.3198 105.47 15.3325C105.525 15.3409 105.578 15.3473 105.632 15.3535C105.689 15.3598 105.744 15.3662 105.801 15.3725C105.862 15.3767 105.923 15.3809 105.987 15.3852C106.077 15.3894 106.17 15.3915 106.261 15.3915H106.263C107.338 15.3915 108.339 15.069 109.173 14.5168V15.3915H111.547V6.23995V0.943359H111.544ZM106.263 13.0203C106.212 13.0203 106.161 13.0183 106.111 13.0162C105.85 13.0035 105.597 12.955 105.356 12.875L105.346 12.8833C105.268 12.8602 105.192 12.8328 105.118 12.8033C104.772 12.6452 104.463 12.4387 104.191 12.1793C103.932 11.9201 103.723 11.6103 103.565 11.2521C103.421 10.8916 103.35 10.5101 103.35 10.1076C103.35 9.70497 103.421 9.31083 103.565 8.96517C103.723 8.60687 103.932 8.29704 104.191 8.0378C104.431 7.80806 104.703 7.62469 105.002 7.4877C105.044 7.46662 105.087 7.44765 105.131 7.43079C105.485 7.27271 105.862 7.19684 106.261 7.19684C106.659 7.19684 107.028 7.2685 107.359 7.41604C107.418 7.43922 107.477 7.46451 107.536 7.49191C107.839 7.62891 108.105 7.81017 108.33 8.0378C108.558 8.26542 108.741 8.531 108.878 8.83239C108.88 8.83661 108.885 8.84294 108.887 8.84926C108.904 8.88719 108.92 8.92513 108.935 8.96517C108.954 9.00733 108.973 9.05159 108.99 9.09586C109.009 9.14433 109.026 9.19492 109.043 9.2455C109.102 9.42676 109.14 9.61434 109.159 9.81246C109.165 9.87569 109.169 9.93892 109.171 10.0022C109.173 10.038 109.173 10.0738 109.173 10.1097C109.173 11.7178 107.871 13.0203 106.263 13.0203Z" fill="#79B231"/>
<path d="M122.035 6.35601C121.561 5.86703 120.994 5.49397 120.332 5.23473C119.685 4.96073 118.973 4.82373 118.197 4.82373C117.421 4.82373 116.7 4.96073 116.041 5.23473C115.394 5.49397 114.833 5.86703 114.359 6.35601C113.882 6.83024 113.51 7.3972 113.236 8.05902C112.978 8.72082 112.848 9.43954 112.848 10.2173C112.848 10.995 112.978 11.7327 113.236 12.3945C113.51 13.0563 113.882 13.6233 114.359 14.0975C114.833 14.5738 115.394 14.9469 116.041 15.2209C116.7 15.4781 117.421 15.6087 118.197 15.6087C118.815 15.6087 119.39 15.5286 119.923 15.3705C120.469 15.1978 120.958 14.9617 121.388 14.6581C121.835 14.342 122.216 13.9689 122.532 13.5368C122.849 13.0921 123.093 12.5968 123.266 12.0488H120.678C120.418 12.4388 120.073 12.7318 119.643 12.9341C119.226 13.1343 118.743 13.2354 118.197 13.2354C117.392 13.2354 116.73 13.0268 116.214 12.6095C115.71 12.1795 115.394 11.5957 115.263 10.8643H123.481C123.51 10.7189 123.523 10.6051 123.523 10.5187C123.538 10.4175 123.546 10.3164 123.546 10.2173C123.546 9.43954 123.409 8.72082 123.135 8.05902C122.876 7.3972 122.509 6.83024 122.035 6.35601ZM115.371 9.13815C115.558 8.53325 115.895 8.05902 116.384 7.71546C116.873 7.3698 117.478 7.19698 118.197 7.19698C118.916 7.19698 119.497 7.3698 119.986 7.71546C120.475 8.05902 120.821 8.53325 121.021 9.13815H115.371Z" fill="#79B231"/>
<path d="M126.122 12.5884C125.69 12.5884 125.332 12.7317 125.043 13.0205C124.757 13.3071 124.613 13.6676 124.613 14.0974C124.613 14.5274 124.757 14.8899 125.043 15.1766C125.332 15.4632 125.69 15.6087 126.122 15.6087C126.554 15.6087 126.913 15.4632 127.202 15.1766C127.488 14.8899 127.632 14.5295 127.632 14.0974C127.632 13.6654 127.488 13.3071 127.202 13.0205C126.913 12.7317 126.554 12.5884 126.122 12.5884Z" fill="#79B231"/>
<path d="M132.355 11.9203C131.824 11.5177 131.242 11.1721 130.61 10.8854C129.99 10.5967 129.408 10.3248 128.862 10.0655C128.329 9.80628 127.884 9.54703 127.524 9.28989C127.166 9.0159 126.984 8.69975 126.984 8.33933C126.984 7.97892 127.166 7.68596 127.524 7.45622C127.899 7.21173 128.365 7.08948 128.926 7.08948C129.617 7.08948 130.169 7.24756 130.586 7.56371C131.004 7.87986 131.212 8.29718 131.212 8.81356H133.586C133.586 8.22552 133.47 7.68596 133.24 7.19698C133.025 6.70799 132.715 6.29067 132.313 5.94501C131.925 5.58671 131.451 5.31271 130.89 5.12723C130.342 4.9249 129.731 4.82373 129.056 4.82373C128.382 4.82373 127.813 4.91015 127.265 5.08297C126.734 5.2558 126.266 5.50029 125.863 5.81644C125.475 6.1326 125.165 6.50776 124.936 6.93773C124.721 7.3698 124.613 7.83771 124.613 8.33933C124.613 9.04541 124.792 9.64187 125.153 10.1308C125.511 10.6051 125.958 11.014 126.489 11.3596C127.035 11.7053 127.619 12.013 128.236 12.287C128.869 12.5462 129.45 12.8181 129.984 13.1069C130.53 13.3935 130.983 13.7182 131.341 14.0765C131.701 14.4221 131.881 14.8604 131.881 15.3916H134.254C134.254 14.6012 134.075 13.9268 133.714 13.3662C133.354 12.8034 132.903 12.3228 132.355 11.9203Z" fill="#79B231"/>
<path d="M136.515 0.0791016C136.083 0.0791016 135.723 0.222424 135.436 0.511175C135.149 0.797819 135.004 1.15823 135.004 1.58819C135.004 2.01816 135.149 2.38068 135.436 2.66733C135.723 2.95608 136.083 3.0994 136.515 3.0994C136.947 3.0994 137.305 2.95608 137.592 2.66733C137.881 2.38068 138.024 2.02027 138.024 1.58819C138.024 1.15613 137.881 0.797819 137.592 0.511175C137.305 0.222424 136.945 0.0791016 136.515 0.0791016Z" fill="#79B231"/>
<path d="M137.703 4.93311H135.332V15.3914H137.703V4.93311Z" fill="#79B231"/>
<path d="M160.613 7.69228C160.383 7.10213 160.052 6.6005 159.62 6.18318C159.188 5.75111 158.678 5.42021 158.088 5.19046C157.498 4.94598 156.851 4.82373 156.147 4.82373C155.443 4.82373 154.796 4.94598 154.206 5.19046C154.016 5.26424 153.839 5.35276 153.666 5.44549V4.93122H151.293V15.3916H153.666V9.61237C153.666 8.8789 153.89 8.29718 154.334 7.86511C154.794 7.42039 155.399 7.19698 156.147 7.19698C156.895 7.19698 157.492 7.42039 157.936 7.86511C158.381 8.29718 158.605 8.8789 158.605 9.61237V15.3916H160.978V9.61237C160.978 8.92316 160.856 8.28243 160.611 7.69228H160.613Z" fill="#79B231"/>
</g>
<defs>
<clipPath id="clip0_1979_4366">
<rect width="92.9883" height="17.9883" fill="white" transform="translate(0 1.00586)"/>
</clipPath>
<clipPath id="clip1_1979_4366">
<rect width="60" height="20" fill="white" transform="translate(100.977)"/>
</clipPath>
</defs>
</svg>
